<?xml version="1.0" standalone="no" ?>
<!DOCTYPE svg PUBLIC "-//W3C//DTD SVG 1.1//EN" "http://www.w3.org/Graphics/SVG/1.1/DTD/svg11.dtd">
<svg width="367px" height="151px" viewBox="0 0 367 151" style="background-color: #ffffff00" xmlns="http://www.w3.org/2000/svg" xmlns:xlink="http://www.w3.org/1999/xlink" version="1.1" >
<text x="0" y="0" stroke="none" fill="#000000" transform="matrix(0.05 0 0 0.05 14.6087 21.7052)" font-style="normal" font-weight="normal" font-size="160px" font-family="Arial" >
O</text>
<path stroke="none" fill="#000000" transform="matrix(0.05 0 0 0.05 -11 -1)" d="M 594.32,488.319 L 606.32,488.319 L 606.32,699.766 L 594.32,699.766 L 594.32,488.319 Z " />
<path stroke="none" fill="#000000" transform="matrix(0.05 0 0 0.05 -11 -1)" d="M 542.48,488.319 L 554.48,488.319 L 554.48,699.766 L 542.48,699.766 L 542.48,488.319 Z " />
<text x="0" y="0" stroke="none" fill="#000000" transform="matrix(0.05 0 0 0.05 27.3013 43.3052)" font-style="normal" font-weight="normal" font-size="160px" font-family="Arial" >
Cl</text>
<path stroke="none" fill="#000000" transform="matrix(0.05 0 0 0.05 -11 -1)" d="M 574.4,691.728 L 574.4,677.872 L 752.33,780.606 L 746.33,790.998 L 574.4,691.728 Z " />
<path stroke="none" fill="#000000" transform="matrix(0.05 0 0 0.05 -11 -1)" d="M 574.4,677.872 L 574.4,691.728 L 328,833.996 L 322,823.604 L 574.4,677.872 Z " />
<path stroke="none" fill="#000000" transform="matrix(0.05 0 0 0.05 -11 -1)" d="M 1729.6,578.2 L 1157.8,578.2 L 1157.8,566.2 L 1729.6,566.2 Z " />
<path stroke="none" fill="#000000" transform="matrix(0.05 0 0 0.05 -11 -1)" d="M 1243.8,602.2 L 1815.6,602.2 L 1815.6,614.2 L 1243.8,614.2 Z " />
<path stroke="none" fill="#000000" transform="matrix(0.05 0 0 0.05 -11 -1)" d="M 1833.6,578.2 C 1833.6,578.2 1728.6,578.2 1728.6,578.2 C 1728.6,558.2 1713.6,540.201 1713.6,540.201 C 1713.6,540.201 1833.6,578.2 1833.6,578.2 C 1833.6,578.2 1833.6,578.2 1833.6,578.2 " />
<path stroke="#000000" stroke-width="1" fill="none" transform="matrix(0.05 0 0 0.05 -11 -1)" d="M 1833.6,578.2 C 1833.6,578.2 1728.6,578.2 1728.6,578.2 C 1728.6,558.2 1713.6,540.201 1713.6,540.201 C 1713.6,540.201 1833.6,578.2 1833.6,578.2 C 1833.6,578.2 1833.6,578.2 1833.6,578.2 " />
<path stroke="none" fill="#000000" transform="matrix(0.05 0 0 0.05 -11 -1)" d="M 1139.8,602.2 C 1139.8,602.2 1259.8,640.199 1259.8,640.199 C 1259.8,640.199 1244.8,610.199 1244.8,602.2 C 1244.8,602.2 1139.8,602.2 1139.8,602.2 C 1139.8,602.2 1139.8,602.2 1139.8,602.2 " />
<path stroke="#000000" stroke-width="1" fill="none" transform="matrix(0.05 0 0 0.05 -11 -1)" d="M 1139.8,602.2 C 1139.8,602.2 1259.8,640.199 1259.8,640.199 C 1259.8,640.199 1244.8,610.199 1244.8,602.2 C 1244.8,602.2 1139.8,602.2 1139.8,602.2 C 1139.8,602.2 1139.8,602.2 1139.8,602.2 " />
<text x="0" y="0" stroke="none" fill="#000000" transform="matrix(0.05 0 0 0.05 48.3341 19.9152)" font-style="normal" font-weight="normal" font-size="160px" font-family="Arial" >
+AlCl</text>
<text x="0" y="0" stroke="none" fill="#000000" transform="matrix(0.05 0 0 0.05 67.6739 21.6105)" font-style="normal" font-weight="normal" font-size="120px" font-family="Arial" >
3</text>
<text x="0" y="0" stroke="none" fill="#000000" transform="matrix(0.05 0 0 0.05 99.6687 24.8452)" font-style="normal" font-weight="normal" font-size="160px" font-family="Arial" >
O</text>
<path stroke="none" fill="#000000" transform="matrix(0.05 0 0 0.05 -11 -1)" d="M 2269.6,551.119 L 2281.6,551.119 L 2281.6,744.136 L 2275.6,747.6 L 2269.6,744.136 L 2269.6,551.119 Z " />
<path stroke="none" fill="#000000" transform="matrix(0.05 0 0 0.05 -11 -1)" d="M 2321.44,551.119 L 2333.44,551.119 L 2333.44,606.636 L 2321.44,606.636 L 2321.44,551.119 Z " />
<path stroke="none" fill="#000000" transform="matrix(0.05 0 0 0.05 -11 -1)" d="M 2321.44,662.153 L 2333.44,662.153 L 2333.44,717.671 L 2321.44,717.671 L 2321.44,662.153 Z " />
<path stroke="none" fill="#000000" transform="matrix(0.05 0 0 0.05 -11 -1)" d="M 2269.6,744.136 L 2275.6,747.6 L 2275.6,754.528 L 2029.2,896.796 L 2023.2,886.404 L 2269.6,744.136 Z " />
<text x="0" y="0" stroke="none" fill="#000000" transform="matrix(0.05 0 0 0.05 112.361 46.4452)" font-style="normal" font-weight="normal" font-size="160px" font-family="Arial" >
Cl</text>
<path stroke="none" fill="#000000" transform="matrix(0.05 0 0 0.05 -11 -1)" d="M 2275.6,754.528 L 2275.6,747.6 L 2281.6,744.136 L 2453.53,843.406 L 2447.53,853.798 L 2275.6,754.528 Z " />
<text x="0" y="0" stroke="none" fill="#000000" transform="matrix(0.05 0 0 0.05 110.292 14.6652)" font-style="normal" font-weight="normal" font-size="160px" font-family="Arial" >
AlCl</text>
<text x="0" y="0" stroke="none" fill="#000000" transform="matrix(0.05 0 0 0.05 124.96 16.3605)" font-style="normal" font-weight="normal" font-size="120px" font-family="Arial" >
3</text>
<path stroke="none" fill="#000000" transform="matrix(0.05 0 0 0.05 -11 -1)" d="M 2344.22,399.462 L 2335.74,390.977 L 2396.3,330.419 L 2404.78,338.904 L 2344.22,399.462 Z " />
<text x="0" y="0" stroke="none" fill="#000000" transform="matrix(0.05 0 0 0.05 95.24 36.48)" font-style="normal" font-weight="normal" font-size="132px" font-family="Symbol" >
d+</text>
<text x="0" y="0" stroke="none" fill="#000000" transform="matrix(0.05 0 0 0.05 107.81 7.14999)" font-style="normal" font-weight="normal" font-size="132px" font-family="Symbol" >
d</text>
<text x="0" y="0" stroke="none" fill="#000000" transform="matrix(0.05 0 0 0.05 111.481 7.14999)" font-style="normal" font-weight="normal" font-size="132px" font-family="Helvetica" >
-</text>
<path stroke="none" fill="#000000" transform="matrix(0.05 0 0 0.05 -11 -1)" d="M 3455.8,573.8 L 2874.8,573.8 L 2874.8,561.8 L 3455.8,561.8 Z " />
<path stroke="none" fill="#000000" transform="matrix(0.05 0 0 0.05 -11 -1)" d="M 2960.8,597.8 L 3541.8,597.8 L 3541.8,609.8 L 2960.8,609.8 Z " />
<path stroke="none" fill="#000000" transform="matrix(0.05 0 0 0.05 -11 -1)" d="M 3559.8,573.8 C 3559.8,573.8 3454.8,573.8 3454.8,573.8 C 3454.8,553.8 3439.8,535.801 3439.8,535.801 C 3439.8,535.801 3559.8,573.8 3559.8,573.8 C 3559.8,573.8 3559.8,573.8 3559.8,573.8 " />
<path stroke="#000000" stroke-width="1" fill="none" transform="matrix(0.05 0 0 0.05 -11 -1)" d="M 3559.8,573.8 C 3559.8,573.8 3454.8,573.8 3454.8,573.8 C 3454.8,553.8 3439.8,535.801 3439.8,535.801 C 3439.8,535.801 3559.8,573.8 3559.8,573.8 C 3559.8,573.8 3559.8,573.8 3559.8,573.8 " />
<path stroke="none" fill="#000000" transform="matrix(0.05 0 0 0.05 -11 -1)" d="M 2856.8,597.8 C 2856.8,597.8 2976.8,635.799 2976.8,635.799 C 2976.8,635.799 2961.8,605.799 2961.8,597.8 C 2961.8,597.8 2856.8,597.8 2856.8,597.8 C 2856.8,597.8 2856.8,597.8 2856.8,597.8 " />
<path stroke="#000000" stroke-width="1" fill="none" transform="matrix(0.05 0 0 0.05 -11 -1)" d="M 2856.8,597.8 C 2856.8,597.8 2976.8,635.799 2976.8,635.799 C 2976.8,635.799 2961.8,605.799 2961.8,597.8 C 2961.8,597.8 2856.8,597.8 2856.8,597.8 C 2856.8,597.8 2856.8,597.8 2856.8,597.8 " />
<text x="0" y="0" stroke="none" fill="#000000" transform="matrix(0.05 0 0 0.05 180.629 22.1252)" font-style="normal" font-weight="normal" font-size="160px" font-family="Arial" >
O</text>
<path stroke="none" fill="#000000" transform="matrix(0.05 0 0 0.05 -11 -1)" d="M 3914.72,496.719 L 3926.72,496.719 L 3926.72,708.166 L 3914.72,708.166 L 3914.72,496.719 Z " />
<path stroke="none" fill="#000000" transform="matrix(0.05 0 0 0.05 -11 -1)" d="M 3862.88,496.719 L 3874.88,496.719 L 3874.88,708.154 L 3862.88,708.154 L 3862.88,496.719 Z " />
<path stroke="none" fill="#000000" transform="matrix(0.05 0 0 0.05 -11 -1)" d="M 3894.8,686.272 L 3894.8,700.127 L 3648.2,842.397 L 3642.2,832.003 L 3894.8,686.272 Z " />
<text x="0" y="0" stroke="none" fill="#000000" transform="matrix(0.05 0 0 0.05 193.321 43.7252)" font-style="normal" font-weight="normal" font-size="160px" font-family="Arial" >
Cl</text>
<path stroke="none" fill="#000000" transform="matrix(0.05 0 0 0.05 -11 -1)" d="M 3894.8,700.127 L 3894.8,686.272 L 3956.11,721.671 L 3950.11,732.063 L 3894.8,700.127 Z " />
<path stroke="none" fill="#000000" transform="matrix(0.05 0 0 0.05 -11 -1)" d="M 4008.42,765.731 L 4014.42,755.339 L 4072.73,789.006 L 4066.73,799.398 L 4008.42,765.731 Z " />
<text x="0" y="0" stroke="none" fill="#000000" transform="matrix(0.05 0 0 0.05 206.012 36.5252)" font-style="normal" font-weight="normal" font-size="160px" font-family="Arial" >
AlCl</text>
<text x="0" y="0" stroke="none" fill="#000000" transform="matrix(0.05 0 0 0.05 220.68 38.2205)" font-style="normal" font-weight="normal" font-size="120px" font-family="Arial" >
3</text>
<path stroke="none" fill="#000000" transform="matrix(0.05 0 0 0.05 -11 -1)" d="M 4260.42,777.023 L 4254.42,766.631 L 4297.11,741.986 L 4303.11,752.378 L 4260.42,777.023 Z " />
<text x="0" y="0" stroke="none" fill="#000000" transform="matrix(0.05 0 0 0.05 292.833 25.2352)" font-style="normal" font-weight="normal" font-size="160px" font-family="Arial" >
O</text>
<path stroke="none" fill="#000000" transform="matrix(0.05 0 0 0.05 -11 -1)" d="M 6158.8,558.919 L 6170.8,558.919 L 6170.8,758.864 L 6158.8,751.936 L 6158.8,558.919 Z " />
<path stroke="none" fill="#000000" transform="matrix(0.05 0 0 0.05 -11 -1)" d="M 6106.96,558.919 L 6118.96,558.919 L 6118.96,725.471 L 6106.96,725.471 L 6106.96,558.919 Z " />
<path stroke="#000000" stroke-width="10" fill="none" transform="matrix(0.05 0 0 0.05 -11 -1)" d="M 6204.73,787.933 A 71.7999,71.7999 0 1 1 6348.33,787.933 A 71.7999,71.7999 0 1 1 6204.73,787.933 Z " />
<path stroke="none" fill="#000000" transform="matrix(0.05 0 0 0.05 -11 -1)" d="M 6236.87,782.6 L 6315.53,782.6 L 6315.53,792.6 L 6236.87,792.6 Z " />
<path stroke="none" fill="#000000" transform="matrix(0.05 0 0 0.05 -11 -1)" d="M 6281.2,748.267 L 6281.2,826.933 L 6271.2,826.933 L 6271.2,748.267 Z " />
<path stroke="none" fill="#000000" transform="matrix(0.05 0 0 0.05 -11 -1)" d="M 6158.8,751.936 L 6170.8,758.864 L 5918.4,904.596 L 5912.4,894.204 L 6158.8,751.936 Z " />
<path stroke="none" fill="#000000" transform="matrix(0.05 0 0 0.05 -11 -1)" d="M 6750.4,1352.34 L 6762.4,1359.26 L 6762.4,1640.34 L 6750.4,1647.26 L 6750.4,1352.34 Z " />
<path stroke="none" fill="#000000" transform="matrix(0.05 0 0 0.05 -11 -1)" d="M 6802.24,1385.73 L 6814.24,1385.73 L 6814.24,1613.87 L 6802.24,1613.87 L 6802.24,1385.73 Z " />
<path stroke="none" fill="#000000" transform="matrix(0.05 0 0 0.05 -11 -1)" d="M 6750.4,1647.26 L 6762.4,1640.34 L 7005.8,1780.87 L 7005.8,1794.73 L 6750.4,1647.26 Z " />
<path stroke="none" fill="#000000" transform="matrix(0.05 0 0 0.05 -11 -1)" d="M 7005.8,1794.73 L 7005.8,1780.87 L 7249.2,1640.34 L 7255.2,1643.8 L 7255.2,1650.73 L 7005.8,1794.73 Z " />
<path stroke="none" fill="#000000" transform="matrix(0.05 0 0 0.05 -11 -1)" d="M 7008.8,1733.14 L 7002.8,1722.75 L 7200.36,1608.68 L 7206.36,1619.07 L 7008.8,1733.14 Z " />
<path stroke="none" fill="#000000" transform="matrix(0.05 0 0 0.05 -11 -1)" d="M 7261.2,1640.34 L 7255.2,1643.8 L 7249.2,1640.34 L 7249.2,1359.26 L 7261.2,1352.34 L 7261.2,1640.34 Z " />
<path stroke="none" fill="#000000" transform="matrix(0.05 0 0 0.05 -11 -1)" d="M 7261.2,1352.34 L 7249.2,1359.26 L 7005.8,1218.73 L 7005.8,1211.8 L 7011.8,1208.34 L 7261.2,1352.34 Z " />
<path stroke="none" fill="#000000" transform="matrix(0.05 0 0 0.05 -11 -1)" d="M 7206.36,1380.53 L 7200.36,1390.92 L 7002.8,1276.85 L 7008.8,1266.46 L 7206.36,1380.53 Z " />
<path stroke="none" fill="#000000" transform="matrix(0.05 0 0 0.05 -11 -1)" d="M 6999.8,1208.34 L 7005.8,1211.8 L 7005.8,1218.73 L 6762.4,1359.26 L 6750.4,1352.34 L 6999.8,1208.34 Z " />
<path stroke="none" fill="#000000" transform="matrix(0.05 0 0 0.05 -11 -1)" d="M 7011.8,1208.34 L 7005.8,1211.8 L 6999.8,1208.34 L 6999.8,923.8 L 7011.8,923.8 L 7011.8,1208.34 Z " />
<path stroke="none" fill="#000000" transform="matrix(0.05 0 0 0.05 -11 -1)" d="M 7255.2,1650.73 L 7255.2,1643.8 L 7261.2,1640.34 L 7507.6,1782.6 L 7501.6,1793 L 7255.2,1650.73 Z " />
<path stroke="none" fill="#000000" transform="matrix(0.05 0 0 0.05 -11 -1)" d="M 6133.2,2817.26 L 6145.2,2810.34 L 6388.6,2950.87 L 6388.6,2964.73 L 6133.2,2817.26 Z " />
<path stroke="none" fill="#000000" transform="matrix(0.05 0 0 0.05 -11 -1)" d="M 6388.6,2964.73 L 6388.6,2950.87 L 6632,2810.34 L 6638,2813.8 L 6638,2820.73 L 6388.6,2964.73 Z " />
<path stroke="none" fill="#000000" transform="matrix(0.05 0 0 0.05 -11 -1)" d="M 6391.6,2903.14 L 6385.6,2892.75 L 6583.16,2778.68 L 6589.16,2789.07 L 6391.6,2903.14 Z " />
<path stroke="none" fill="#000000" transform="matrix(0.05 0 0 0.05 -11 -1)" d="M 6644,2810.34 L 6638,2813.8 L 6632,2810.34 L 6632,2529.26 L 6644,2522.34 L 6644,2810.34 Z " />
<path stroke="none" fill="#000000" transform="matrix(0.05 0 0 0.05 -11 -1)" d="M 6644,2522.34 L 6632,2529.26 L 6388.6,2388.73 L 6388.6,2381.8 L 6394.6,2378.34 L 6644,2522.34 Z " />
<path stroke="none" fill="#000000" transform="matrix(0.05 0 0 0.05 -11 -1)" d="M 6589.16,2550.53 L 6583.16,2560.92 L 6385.6,2446.85 L 6391.6,2436.46 L 6589.16,2550.53 Z " />
<path stroke="none" fill="#000000" transform="matrix(0.05 0 0 0.05 -11 -1)" d="M 6382.6,2378.34 L 6388.6,2381.8 L 6388.6,2388.73 L 6145.2,2529.26 L 6139.2,2525.8 L 6145.2,2515.41 L 6382.6,2378.34 Z " />
<path stroke="none" fill="#000000" transform="matrix(0.05 0 0 0.05 -11 -1)" d="M 6394.6,2378.34 L 6388.6,2381.8 L 6382.6,2378.34 L 6382.6,2093.8 L 6394.6,2093.8 L 6394.6,2378.34 Z " />
<path stroke="none" fill="#000000" transform="matrix(0.05 0 0 0.05 -11 -1)" d="M 6638,2820.73 L 6638,2813.8 L 6644,2810.34 L 6890.4,2952.6 L 6884.4,2963 L 6638,2820.73 Z " />
<path stroke="none" fill="#000000" transform="matrix(0.05 0 0 0.05 -11 -1)" d="M 6133.2,2515.41 L 6139.2,2525.8 L 6133.2,2529.26 L 5889.8,2388.73 L 5889.8,2374.87 L 6133.2,2515.41 Z " />
<text x="0" y="0" stroke="none" fill="#000000" transform="matrix(0.05 0 0 0.05 280.379 106.555)" font-style="normal" font-weight="normal" font-size="160px" font-family="Arial" >
O</text>
<path stroke="none" fill="#000000" transform="matrix(0.05 0 0 0.05 -11 -1)" d="M 5869.88,2396.77 L 5857.88,2396.77 L 5857.88,2185.32 L 5869.88,2185.32 L 5869.88,2396.77 Z " />
<path stroke="none" fill="#000000" transform="matrix(0.05 0 0 0.05 -11 -1)" d="M 5921.72,2396.77 L 5909.72,2396.77 L 5909.72,2185.32 L 5921.72,2185.32 L 5921.72,2396.77 Z " />
<path stroke="none" fill="#000000" transform="matrix(0.05 0 0 0.05 -11 -1)" d="M 5889.8,2374.87 L 5889.8,2388.73 L 5643.4,2531 L 5637.4,2520.6 L 5889.8,2374.87 Z " />
<text x="0" y="0" stroke="none" fill="#000000" transform="matrix(0.05 0 0 0.05 293.071 113.755)" font-style="normal" font-weight="normal" font-size="160px" font-family="Arial" >
H</text>
<path stroke="none" fill="#000000" transform="matrix(0.05 0 0 0.05 -11 -1)" d="M 6145.2,2515.41 L 6139.2,2525.8 L 6133.2,2515.41 L 6133.2,2326.33 L 6145.2,2326.33 L 6145.2,2515.41 Z " />
<path stroke="none" fill="#000000" transform="matrix(0.05 0 0 0.05 -11 -1)" d="M 6145.2,2810.34 L 6133.2,2817.26 L 6133.2,2529.26 L 6139.2,2525.8 L 6145.2,2529.26 L 6145.2,2810.34 Z " />
<path stroke="#000000" stroke-width="10" fill="none" transform="matrix(0.05 0 0 0.05 -11 -1)" d="M 6003.53,2910.73 A 71.7999,71.7999 0 1 1 6147.13,2910.73 A 71.7999,71.7999 0 1 1 6003.53,2910.73 Z " />
<path stroke="none" fill="#000000" transform="matrix(0.05 0 0 0.05 -11 -1)" d="M 6035.67,2905.4 L 6114.33,2905.4 L 6114.33,2915.4 L 6035.67,2915.4 Z " />
<path stroke="none" fill="#000000" transform="matrix(0.05 0 0 0.05 -11 -1)" d="M 6080,2871.07 L 6080,2949.73 L 6070,2949.73 L 6070,2871.07 Z " />
<path stroke="#ff0000" stroke-width="12" fill="none" transform="matrix(0.05 0 0 0.05 -11 -1)" d="M 3973.2,794.729 C 3973.16,863.597 4030.4,926.434 4098.98,932.806 " />
<path stroke="none" fill="#ff0000" transform="matrix(0.05 0 0 0.05 -11 -1)" d="M 4181.04,914.867 C 4181.04,914.867 4093.38,959.814 4093.38,959.814 C 4093.38,959.814 4101.66,943.501 4098.98,932.806 C 4096.3,922.11 4081.13,910.922 4081.13,910.922 C 4081.13,910.922 4181.04,914.867 4181.04,914.867 C 4181.04,914.867 4181.04,914.867 4181.04,914.867 " />
<path stroke="#ff0000" stroke-width="1" fill="none" transform="matrix(0.05 0 0 0.05 -11 -1)" d="M 4181.04,914.867 C 4181.04,914.867 4093.38,959.814 4093.38,959.814 C 4093.38,959.814 4101.66,943.501 4098.98,932.806 C 4096.3,922.11 4081.13,910.922 4081.13,910.922 C 4081.13,910.922 4181.04,914.867 4181.04,914.867 C 4181.04,914.867 4181.04,914.867 4181.04,914.867 " />
<text x="0" y="0" stroke="none" fill="#000000" transform="matrix(0.05 0 0 0.05 174.46 34.08)" font-style="normal" font-weight="normal" font-size="132px" font-family="Symbol" >
d+</text>
<text x="0" y="0" stroke="none" fill="#000000" transform="matrix(0.05 0 0 0.05 206.99 28.75)" font-style="normal" font-weight="normal" font-size="132px" font-family="Symbol" >
d</text>
<text x="0" y="0" stroke="none" fill="#000000" transform="matrix(0.05 0 0 0.05 210.661 28.75)" font-style="normal" font-weight="normal" font-size="132px" font-family="Helvetica" >
-</text>
<path stroke="none" fill="#000000" transform="matrix(0.05 0 0 0.05 -11 -1)" d="M 5691.2,554.6 L 4812.4,554.6 L 4812.4,542.6 L 5691.2,542.6 Z " />
<path stroke="none" fill="#000000" transform="matrix(0.05 0 0 0.05 -11 -1)" d="M 4898.4,578.599 L 5777.2,578.599 L 5777.2,590.599 L 4898.4,590.599 Z " />
<path stroke="none" fill="#000000" transform="matrix(0.05 0 0 0.05 -11 -1)" d="M 5795.2,554.6 C 5795.2,554.6 5690.2,554.6 5690.2,554.6 C 5690.2,534.6 5675.2,516.6 5675.2,516.6 C 5675.2,516.6 5795.2,554.6 5795.2,554.6 C 5795.2,554.6 5795.2,554.6 5795.2,554.6 " />
<path stroke="#000000" stroke-width="1" fill="none" transform="matrix(0.05 0 0 0.05 -11 -1)" d="M 5795.2,554.6 C 5795.2,554.6 5690.2,554.6 5690.2,554.6 C 5690.2,534.6 5675.2,516.6 5675.2,516.6 C 5675.2,516.6 5795.2,554.6 5795.2,554.6 C 5795.2,554.6 5795.2,554.6 5795.2,554.6 " />
<path stroke="none" fill="#000000" transform="matrix(0.05 0 0 0.05 -11 -1)" d="M 4794.4,578.599 C 4794.4,578.599 4914.4,616.599 4914.4,616.599 C 4914.4,616.599 4899.4,586.599 4899.4,578.599 C 4899.4,578.599 4794.4,578.599 4794.4,578.599 C 4794.4,578.599 4794.4,578.599 4794.4,578.599 " />
<path stroke="#000000" stroke-width="1" fill="none" transform="matrix(0.05 0 0 0.05 -11 -1)" d="M 4794.4,578.599 C 4794.4,578.599 4914.4,616.599 4914.4,616.599 C 4914.4,616.599 4899.4,586.599 4899.4,578.599 C 4899.4,578.599 4794.4,578.599 4794.4,578.599 C 4794.4,578.599 4794.4,578.599 4794.4,578.599 " />
<text x="0" y="0" stroke="none" fill="#000000" transform="matrix(0.05 0 0 0.05 247.038 40.0352)" font-style="normal" font-weight="normal" font-size="160px" font-family="Arial" >
-AlCl</text>
<text x="0" y="0" stroke="none" fill="#000000" transform="matrix(0.05 0 0 0.05 264.37 41.7305)" font-style="normal" font-weight="normal" font-size="120px" font-family="Arial" >
4</text>
<path stroke="#000000" stroke-width="10" fill="none" transform="matrix(0.05 0 0 0.05 -11 -1)" d="M 5593.53,677.533 A 71.7999,71.7999 0 1 1 5737.13,677.533 A 71.7999,71.7999 0 1 1 5593.53,677.533 Z " />
<path stroke="none" fill="#000000" transform="matrix(0.05 0 0 0.05 -11 -1)" d="M 5625.67,672.2 L 5704.33,672.2 L 5704.33,682.2 L 5625.67,682.2 Z " />
<path stroke="none" fill="#000000" transform="matrix(0.05 0 0 0.05 -11 -1)" d="M 6107.8,1786.2 L 6107.8,1093.8 L 6119.8,1093.8 L 6119.8,1786.2 Z " />
<path stroke="none" fill="#000000" transform="matrix(0.05 0 0 0.05 -11 -1)" d="M 6113.8,1890.2 C 6113.8,1890.2 6081.8,1770.2 6081.8,1770.2 C 6081.8,1770.2 6099.8,1785.2 6113.8,1785.2 C 6127.36,1785.2 6144.8,1770.2 6144.8,1770.2 C 6144.8,1770.2 6113.8,1890.2 6113.8,1890.2 C 6113.8,1890.2 6113.8,1890.2 6113.8,1890.2 " />
<path stroke="#000000" stroke-width="1" fill="none" transform="matrix(0.05 0 0 0.05 -11 -1)" d="M 6113.8,1890.2 C 6113.8,1890.2 6081.8,1770.2 6081.8,1770.2 C 6081.8,1770.2 6099.8,1785.2 6113.8,1785.2 C 6127.36,1785.2 6144.8,1770.2 6144.8,1770.2 C 6144.8,1770.2 6113.8,1890.2 6113.8,1890.2 C 6113.8,1890.2 6113.8,1890.2 6113.8,1890.2 " />
<text x="0" y="0" stroke="none" fill="#000000" transform="matrix(0.05 0 0 0.05 297.21 75.84)" font-style="normal" font-weight="normal" font-size="160px" font-family="Arial" >
+</text>
<path stroke="#ff0000" stroke-width="12" fill="none" transform="matrix(0.05 0 0 0.05 -11 -1)" d="M 6198.88,1005.75 C 6236.73,1244.65 6460.63,1435.8 6702.6,1435.8 " />
<path stroke="none" fill="#ff0000" transform="matrix(0.05 0 0 0.05 -11 -1)" d="M 6192.6,926 C 6192.6,926 6223.56,1014.35 6223.56,1014.35 C 6223.56,1014.35 6208.79,1004.59 6198.88,1005.75 C 6188.97,1006.91 6175.99,1019.94 6175.99,1019.94 C 6175.99,1019.94 6192.6,926 6192.6,926 C 6192.6,926 6192.6,926 6192.6,926 " />
<path stroke="#ff0000" stroke-width="1" fill="none" transform="matrix(0.05 0 0 0.05 -11 -1)" d="M 6192.6,926 C 6192.6,926 6223.56,1014.35 6223.56,1014.35 C 6223.56,1014.35 6208.79,1004.59 6198.88,1005.75 C 6188.97,1006.91 6175.99,1019.94 6175.99,1019.94 C 6175.99,1019.94 6192.6,926 6192.6,926 C 6192.6,926 6192.6,926 6192.6,926 " />
<path stroke="none" fill="#000000" transform="matrix(0.05 0 0 0.05 -11 -1)" d="M 4378,2546 L 5429.4,2546 L 5429.4,2558 L 4378,2558 Z " />
<path stroke="none" fill="#000000" transform="matrix(0.05 0 0 0.05 -11 -1)" d="M 4274,2552 C 4274,2552 4394,2520 4394,2520 C 4394,2520 4379,2538 4379,2552 C 4379,2565.56 4394,2583 4394,2583 C 4394,2583 4274,2552 4274,2552 C 4274,2552 4274,2552 4274,2552 " />
<path stroke="#000000" stroke-width="1" fill="none" transform="matrix(0.05 0 0 0.05 -11 -1)" d="M 4274,2552 C 4274,2552 4394,2520 4394,2520 C 4394,2520 4379,2538 4379,2552 C 4379,2565.56 4394,2583 4394,2583 C 4394,2583 4274,2552 4274,2552 C 4274,2552 4274,2552 4274,2552 " />
<text x="0" y="0" stroke="none" fill="#000000" transform="matrix(0.05 0 0 0.05 220.98 121.95)" font-style="normal" font-weight="normal" font-size="160px" font-family="Arial" >
+ </text>
<text x="0" y="0" stroke="none" fill="#000000" transform="matrix(0.05 0 0 0.05 227.433 121.95)" font-style="normal" font-weight="normal" font-size="160px" font-family="Arial" >
AlCl</text>
<text x="0" y="0" stroke="none" fill="#000000" transform="matrix(0.05 0 0 0.05 242.101 123.645)" font-style="normal" font-weight="normal" font-size="120px" font-family="Arial" >
3</text>
<path stroke="#000000" stroke-width="10" fill="none" transform="matrix(0.05 0 0 0.05 -11 -1)" d="M 5116.73,2221.53 A 71.7999,71.7999 0 1 1 5260.33,2221.53 A 71.7999,71.7999 0 1 1 5116.73,2221.53 Z " />
<path stroke="none" fill="#000000" transform="matrix(0.05 0 0 0.05 -11 -1)" d="M 5148.87,2216.2 L 5227.53,2216.2 L 5227.53,2226.2 L 5148.87,2226.2 Z " />
<text x="0" y="0" stroke="none" fill="#000000" transform="matrix(0.05 0 0 0.05 222.388 136.825)" font-style="normal" font-weight="normal" font-size="160px" font-family="Arial" >
- </text>
<text x="0" y="0" stroke="none" fill="#000000" transform="matrix(0.05 0 0 0.05 227.275 136.825)" font-style="normal" font-weight="normal" font-size="160px" font-family="Arial" >
HCl</text>
<path stroke="#ff0000" stroke-width="12" fill="none" transform="matrix(0.05 0 0 0.05 -11 -1)" d="M 6106.62,2056.43 C 5892.31,1777.04 5491.66,1724.26 5212.35,1938.63 C 5146.11,1989.47 5090.01,2053.45 5048.26,2125.78 " />
<path stroke="none" fill="#ff0000" transform="matrix(0.05 0 0 0.05 -11 -1)" d="M 6152.96,2125.82 C 6152.96,2125.82 6079.17,2060.76 6079.17,2060.76 C 6079.17,2060.76 6097.56,2062.62 6106.62,2056.43 C 6115.67,2050.24 6120.82,2032.27 6120.82,2032.27 C 6120.82,2032.27 6152.96,2125.82 6152.96,2125.82 C 6152.96,2125.82 6152.96,2125.82 6152.96,2125.82 " />
<path stroke="#ff0000" stroke-width="1" fill="none" transform="matrix(0.05 0 0 0.05 -11 -1)" d="M 6152.96,2125.82 C 6152.96,2125.82 6079.17,2060.76 6079.17,2060.76 C 6079.17,2060.76 6097.56,2062.62 6106.62,2056.43 C 6115.67,2050.24 6120.82,2032.27 6120.82,2032.27 C 6120.82,2032.27 6152.96,2125.82 6152.96,2125.82 C 6152.96,2125.82 6152.96,2125.82 6152.96,2125.82 " />
<path stroke="#ff0000" stroke-width="12" fill="none" transform="matrix(0.05 0 0 0.05 -11 -1)" d="M 6080.19,2350.11 C 5990.39,2401.89 5959.53,2516.81 6011.31,2606.61 C 6013.57,2610.54 6015.98,2614.39 6018.53,2618.15 " />
<path stroke="none" fill="#ff0000" transform="matrix(0.05 0 0 0.05 -11 -1)" d="M 6080.01,2675.39 C 6080.01,2675.39 5992.39,2628.54 5992.39,2628.54 C 5992.39,2628.54 6010.94,2626.27 6018.53,2618.15 C 6026.12,2610.03 6027.1,2591.41 6027.1,2591.41 C 6027.1,2591.41 6080.01,2675.39 6080.01,2675.39 C 6080.01,2675.39 6080.01,2675.39 6080.01,2675.39 " />
<path stroke="#ff0000" stroke-width="1" fill="none" transform="matrix(0.05 0 0 0.05 -11 -1)" d="M 6080.01,2675.39 C 6080.01,2675.39 5992.39,2628.54 5992.39,2628.54 C 5992.39,2628.54 6010.94,2626.27 6018.53,2618.15 C 6026.12,2610.03 6027.1,2591.41 6027.1,2591.41 C 6027.1,2591.41 6080.01,2675.39 6080.01,2675.39 C 6080.01,2675.39 6080.01,2675.39 6080.01,2675.39 " />
<path stroke="none" fill="#000000" transform="matrix(0.05 0 0 0.05 -11 -1)" d="M 3381.8,2448.86 L 3387.8,2445.4 L 3393.8,2448.86 L 3393.8,2729.94 L 3381.8,2736.86 L 3381.8,2448.86 Z " />
<path stroke="none" fill="#000000" transform="matrix(0.05 0 0 0.05 -11 -1)" d="M 3433.64,2475.33 L 3445.64,2475.33 L 3445.64,2703.47 L 3433.64,2703.47 L 3433.64,2475.33 Z " />
<path stroke="none" fill="#000000" transform="matrix(0.05 0 0 0.05 -11 -1)" d="M 3381.8,2736.86 L 3393.8,2729.94 L 3637.2,2870.47 L 3637.2,2884.33 L 3381.8,2736.86 Z " />
<path stroke="none" fill="#000000" transform="matrix(0.05 0 0 0.05 -11 -1)" d="M 3637.2,2884.33 L 3637.2,2870.47 L 3880.6,2729.94 L 3886.6,2733.4 L 3886.6,2740.33 L 3637.2,2884.33 Z " />
<path stroke="none" fill="#000000" transform="matrix(0.05 0 0 0.05 -11 -1)" d="M 3640.2,2822.74 L 3634.2,2812.35 L 3831.76,2698.28 L 3837.76,2708.67 L 3640.2,2822.74 Z " />
<path stroke="none" fill="#000000" transform="matrix(0.05 0 0 0.05 -11 -1)" d="M 3892.6,2729.94 L 3886.6,2733.4 L 3880.6,2729.94 L 3880.6,2448.86 L 3892.6,2441.94 L 3892.6,2729.94 Z " />
<path stroke="none" fill="#000000" transform="matrix(0.05 0 0 0.05 -11 -1)" d="M 3892.6,2441.94 L 3880.6,2448.86 L 3637.2,2308.33 L 3637.2,2301.4 L 3643.2,2297.94 L 3892.6,2441.94 Z " />
<path stroke="none" fill="#000000" transform="matrix(0.05 0 0 0.05 -11 -1)" d="M 3837.76,2470.13 L 3831.76,2480.52 L 3634.2,2366.45 L 3640.2,2356.06 L 3837.76,2470.13 Z " />
<path stroke="none" fill="#000000" transform="matrix(0.05 0 0 0.05 -11 -1)" d="M 3631.2,2297.94 L 3637.2,2301.4 L 3637.2,2308.33 L 3393.8,2448.86 L 3387.8,2445.4 L 3387.8,2438.47 L 3631.2,2297.94 Z " />
<path stroke="none" fill="#000000" transform="matrix(0.05 0 0 0.05 -11 -1)" d="M 3643.2,2297.94 L 3637.2,2301.4 L 3631.2,2297.94 L 3631.2,2013.4 L 3643.2,2013.4 L 3643.2,2297.94 Z " />
<path stroke="none" fill="#000000" transform="matrix(0.05 0 0 0.05 -11 -1)" d="M 3886.6,2740.33 L 3886.6,2733.4 L 3892.6,2729.94 L 4139,2872.2 L 4133,2882.6 L 3886.6,2740.33 Z " />
<path stroke="none" fill="#000000" transform="matrix(0.05 0 0 0.05 -11 -1)" d="M 3387.8,2438.47 L 3387.8,2445.4 L 3381.8,2448.86 L 3138.4,2308.33 L 3138.4,2301.4 L 3144.4,2297.94 L 3387.8,2438.47 Z " />
<text x="0" y="0" stroke="none" fill="#000000" transform="matrix(0.05 0 0 0.05 142.809 102.535)" font-style="normal" font-weight="normal" font-size="160px" font-family="Arial" >
O</text>
<path stroke="none" fill="#000000" transform="matrix(0.05 0 0 0.05 -11 -1)" d="M 3144.4,2297.94 L 3138.4,2301.4 L 3132.4,2297.94 L 3132.4,2104.92 L 3144.4,2104.92 L 3144.4,2297.94 Z " />
<path stroke="none" fill="#000000" transform="matrix(0.05 0 0 0.05 -11 -1)" d="M 3196.24,2271.47 L 3184.24,2271.47 L 3184.24,2215.95 L 3196.24,2215.95 L 3196.24,2271.47 Z " />
<path stroke="none" fill="#000000" transform="matrix(0.05 0 0 0.05 -11 -1)" d="M 3196.24,2160.44 L 3184.24,2160.44 L 3184.24,2104.92 L 3196.24,2104.92 L 3196.24,2160.44 Z " />
<text x="0" y="0" stroke="none" fill="#000000" transform="matrix(0.05 0 0 0.05 153.432 92.3552)" font-style="normal" font-weight="normal" font-size="160px" font-family="Arial" >
AlCl</text>
<text x="0" y="0" stroke="none" fill="#000000" transform="matrix(0.05 0 0 0.05 168.1 94.0505)" font-style="normal" font-weight="normal" font-size="120px" font-family="Arial" >
3</text>
<path stroke="none" fill="#000000" transform="matrix(0.05 0 0 0.05 -11 -1)" d="M 3207.02,1953.26 L 3198.54,1944.78 L 3259.1,1884.22 L 3267.58,1892.7 L 3207.02,1953.26 Z " />
<text x="0" y="0" stroke="none" fill="#000000" transform="matrix(0.05 0 0 0.05 154.52 84.92)" font-style="normal" font-weight="normal" font-size="132px" font-family="Symbol" >
d</text>
<text x="0" y="0" stroke="none" fill="#000000" transform="matrix(0.05 0 0 0.05 158.191 84.92)" font-style="normal" font-weight="normal" font-size="132px" font-family="Helvetica" >
-</text>
<text x="0" y="0" stroke="none" fill="#000000" transform="matrix(0.05 0 0 0.05 137.76 113.53)" font-style="normal" font-weight="normal" font-size="132px" font-family="Symbol" >
d+</text>
<path stroke="none" fill="#000000" transform="matrix(0.05 0 0 0.05 -11 -1)" d="M 3132.4,2297.94 L 3138.4,2301.4 L 3138.4,2308.33 L 2892,2450.6 L 2886,2440.2 L 3132.4,2297.94 Z " />
<path stroke="none" fill="#000000" transform="matrix(0.05 0 0 0.05 -11 -1)" d="M 1799.6,2537.4 L 2553.8,2537.4 L 2553.8,2549.4 L 1799.6,2549.4 Z " />
<path stroke="none" fill="#000000" transform="matrix(0.05 0 0 0.05 -11 -1)" d="M 1695.6,2543.4 C 1695.6,2543.4 1815.6,2511.4 1815.6,2511.4 C 1815.6,2511.4 1800.6,2529.4 1800.6,2543.4 C 1800.6,2556.96 1815.6,2574.4 1815.6,2574.4 C 1815.6,2574.4 1695.6,2543.4 1695.6,2543.4 C 1695.6,2543.4 1695.6,2543.4 1695.6,2543.4 " />
<path stroke="#000000" stroke-width="1" fill="none" transform="matrix(0.05 0 0 0.05 -11 -1)" d="M 1695.6,2543.4 C 1695.6,2543.4 1815.6,2511.4 1815.6,2511.4 C 1815.6,2511.4 1800.6,2529.4 1800.6,2543.4 C 1800.6,2556.96 1815.6,2574.4 1815.6,2574.4 C 1815.6,2574.4 1695.6,2543.4 1695.6,2543.4 C 1695.6,2543.4 1695.6,2543.4 1695.6,2543.4 " />
<path stroke="none" fill="#000000" transform="matrix(0.05 0 0 0.05 -11 -1)" d="M 772,2434.26 L 778,2430.8 L 784,2434.26 L 784,2715.34 L 772,2722.26 L 772,2434.26 Z " />
<path stroke="none" fill="#000000" transform="matrix(0.05 0 0 0.05 -11 -1)" d="M 823.84,2460.73 L 835.84,2460.73 L 835.84,2688.87 L 823.84,2688.87 L 823.84,2460.73 Z " />
<path stroke="none" fill="#000000" transform="matrix(0.05 0 0 0.05 -11 -1)" d="M 772,2722.26 L 784,2715.34 L 1027.4,2855.87 L 1027.4,2869.73 L 772,2722.26 Z " />
<path stroke="none" fill="#000000" transform="matrix(0.05 0 0 0.05 -11 -1)" d="M 1027.4,2869.73 L 1027.4,2855.87 L 1270.8,2715.34 L 1276.8,2718.8 L 1276.8,2725.73 L 1027.4,2869.73 Z " />
<path stroke="none" fill="#000000" transform="matrix(0.05 0 0 0.05 -11 -1)" d="M 1030.4,2808.14 L 1024.4,2797.75 L 1221.96,2683.68 L 1227.96,2694.07 L 1030.4,2808.14 Z " />
<path stroke="none" fill="#000000" transform="matrix(0.05 0 0 0.05 -11 -1)" d="M 1282.8,2715.34 L 1276.8,2718.8 L 1270.8,2715.34 L 1270.8,2434.26 L 1282.8,2427.34 L 1282.8,2715.34 Z " />
<path stroke="none" fill="#000000" transform="matrix(0.05 0 0 0.05 -11 -1)" d="M 1282.8,2427.34 L 1270.8,2434.26 L 1027.4,2293.73 L 1027.4,2286.8 L 1033.4,2283.34 L 1282.8,2427.34 Z " />
<path stroke="none" fill="#000000" transform="matrix(0.05 0 0 0.05 -11 -1)" d="M 1227.96,2455.53 L 1221.96,2465.92 L 1024.4,2351.85 L 1030.4,2341.46 L 1227.96,2455.53 Z " />
<path stroke="none" fill="#000000" transform="matrix(0.05 0 0 0.05 -11 -1)" d="M 1021.4,2283.34 L 1027.4,2286.8 L 1027.4,2293.73 L 784,2434.26 L 778,2430.8 L 778,2423.87 L 1021.4,2283.34 Z " />
<path stroke="none" fill="#000000" transform="matrix(0.05 0 0 0.05 -11 -1)" d="M 1033.4,2283.34 L 1027.4,2286.8 L 1021.4,2283.34 L 1021.4,1998.8 L 1033.4,1998.8 L 1033.4,2283.34 Z " />
<path stroke="none" fill="#000000" transform="matrix(0.05 0 0 0.05 -11 -1)" d="M 1276.8,2725.73 L 1276.8,2718.8 L 1282.8,2715.34 L 1529.2,2857.6 L 1523.2,2868 L 1276.8,2725.73 Z " />
<path stroke="none" fill="#000000" transform="matrix(0.05 0 0 0.05 -11 -1)" d="M 778,2423.87 L 778,2430.8 L 772,2434.26 L 528.6,2293.73 L 528.6,2279.87 L 778,2423.87 Z " />
<text x="0" y="0" stroke="none" fill="#000000" transform="matrix(0.05 0 0 0.05 12.3187 101.805)" font-style="normal" font-weight="normal" font-size="160px" font-family="Arial" >
O</text>
<path stroke="none" fill="#000000" transform="matrix(0.05 0 0 0.05 -11 -1)" d="M 508.68,2301.77 L 496.68,2301.77 L 496.68,2090.32 L 508.68,2090.32 L 508.68,2301.77 Z " />
<path stroke="none" fill="#000000" transform="matrix(0.05 0 0 0.05 -11 -1)" d="M 560.52,2301.77 L 548.52,2301.77 L 548.52,2090.32 L 560.52,2090.32 L 560.52,2301.77 Z " />
<path stroke="none" fill="#000000" transform="matrix(0.05 0 0 0.05 -11 -1)" d="M 528.6,2279.87 L 528.6,2293.73 L 282.2,2436 L 276.2,2425.6 L 528.6,2279.87 Z " />
<text x="0" y="0" stroke="none" fill="#000000" transform="matrix(0.05 0 0 0.05 234.711 101.935)" font-style="normal" font-weight="normal" font-size="160px" font-family="Arial" >
Cl</text>
<path stroke="none" fill="#000000" transform="matrix(0.05 0 0 0.05 -11 -1)" d="M 4978,2289.4 L 4966,2289.4 L 4966,2092.96 L 4978,2092.96 L 4978,2289.4 Z " />
</svg>
