<?xml version="1.0" standalone="no" ?>
<!DOCTYPE svg PUBLIC "-//W3C//DTD SVG 1.1//EN" "http://www.w3.org/Graphics/SVG/1.1/DTD/svg11.dtd">
<svg width="263px" height="61px" viewBox="0 0 263 61" style="background-color: #ffffff00" xmlns="http://www.w3.org/2000/svg" xmlns:xlink="http://www.w3.org/1999/xlink" version="1.1" >
<path stroke="none" fill="#000000" transform="matrix(0.05 0 0 0.05 -162 -249)" d="M 3284.6,5712.54 L 3296.6,5719.46 L 3296.6,6000.54 L 3284.6,6007.46 L 3284.6,5712.54 Z " />
<path stroke="none" fill="#000000" transform="matrix(0.05 0 0 0.05 -162 -249)" d="M 3336.44,5745.93 L 3348.44,5745.93 L 3348.44,5974.07 L 3336.44,5974.07 L 3336.44,5745.93 Z " />
<path stroke="none" fill="#000000" transform="matrix(0.05 0 0 0.05 -162 -249)" d="M 3284.6,6007.46 L 3296.6,6000.54 L 3540,6141.07 L 3540,6154.93 L 3284.6,6007.46 Z " />
<path stroke="none" fill="#000000" transform="matrix(0.05 0 0 0.05 -162 -249)" d="M 3540,6154.93 L 3540,6141.07 L 3783.4,6000.54 L 3795.4,6007.46 L 3540,6154.93 Z " />
<path stroke="none" fill="#000000" transform="matrix(0.05 0 0 0.05 -162 -249)" d="M 3543,6093.34 L 3537,6082.95 L 3734.56,5968.88 L 3740.56,5979.27 L 3543,6093.34 Z " />
<path stroke="none" fill="#000000" transform="matrix(0.05 0 0 0.05 -162 -249)" d="M 3795.4,6007.46 L 3783.4,6000.54 L 3783.4,5719.46 L 3795.4,5712.54 L 3795.4,6007.46 Z " />
<path stroke="none" fill="#000000" transform="matrix(0.05 0 0 0.05 -162 -249)" d="M 3795.4,5712.54 L 3783.4,5719.46 L 3540,5578.93 L 3540,5572 L 3546,5568.54 L 3795.4,5712.54 Z " />
<path stroke="none" fill="#000000" transform="matrix(0.05 0 0 0.05 -162 -249)" d="M 3740.56,5740.73 L 3734.56,5751.12 L 3537,5637.05 L 3543,5626.66 L 3740.56,5740.73 Z " />
<path stroke="none" fill="#000000" transform="matrix(0.05 0 0 0.05 -162 -249)" d="M 3534,5568.54 L 3540,5572 L 3540,5578.93 L 3296.6,5719.46 L 3284.6,5712.54 L 3534,5568.54 Z " />
<path stroke="none" fill="#000000" transform="matrix(0.05 0 0 0.05 -162 -249)" d="M 3546,5568.54 L 3540,5572 L 3534,5568.54 L 3534,5286.49 L 3546,5281.51 L 3546,5568.54 Z " />
<path stroke="none" fill="#000000" transform="matrix(0.05 0 0 0.05 -162 -249)" d="M 3546,5281.51 L 3534,5286.49 L 3332.16,5084.64 L 3340.64,5076.16 L 3546,5281.51 Z " />
<path stroke="none" fill="#000000" transform="matrix(0.05 0 0 0.05 -162 -249)" d="M 3492.41,5301.23 L 3483.93,5309.71 L 3295.51,5121.29 L 3303.99,5112.81 L 3492.41,5301.23 Z " />
<path stroke="none" fill="#000000" transform="matrix(0.05 0 0 0.05 -162 -249)" d="M 7241.57,5688.97 L 7253.57,5695.9 L 7253.57,5976.97 L 7241.57,5983.9 L 7241.57,5688.97 Z " />
<path stroke="none" fill="#000000" transform="matrix(0.05 0 0 0.05 -162 -249)" d="M 7293.41,5722.36 L 7305.41,5722.36 L 7305.41,5950.51 L 7293.41,5950.51 L 7293.41,5722.36 Z " />
<path stroke="none" fill="#000000" transform="matrix(0.05 0 0 0.05 -162 -249)" d="M 7241.57,5983.9 L 7253.57,5976.97 L 7496.97,6117.51 L 7496.97,6131.36 L 7241.57,5983.9 Z " />
<path stroke="none" fill="#000000" transform="matrix(0.05 0 0 0.05 -162 -249)" d="M 7496.97,6131.36 L 7496.97,6117.51 L 7740.37,5976.97 L 7752.37,5983.9 L 7496.97,6131.36 Z " />
<path stroke="none" fill="#000000" transform="matrix(0.05 0 0 0.05 -162 -249)" d="M 7499.97,6069.77 L 7493.97,6059.38 L 7691.53,5945.31 L 7697.54,5955.7 L 7499.97,6069.77 Z " />
<path stroke="none" fill="#000000" transform="matrix(0.05 0 0 0.05 -162 -249)" d="M 7752.37,5983.9 L 7740.37,5976.97 L 7740.37,5695.9 L 7746.37,5692.43 L 7752.37,5695.9 L 7752.37,5983.9 Z " />
<path stroke="none" fill="#000000" transform="matrix(0.05 0 0 0.05 -162 -249)" d="M 7746.37,5685.51 L 7746.37,5692.43 L 7740.37,5695.9 L 7496.97,5555.36 L 7496.97,5541.51 L 7746.37,5685.51 Z " />
<path stroke="none" fill="#000000" transform="matrix(0.05 0 0 0.05 -162 -249)" d="M 7697.54,5717.17 L 7691.54,5727.56 L 7493.97,5613.49 L 7499.97,5603.1 L 7697.54,5717.17 Z " />
<path stroke="none" fill="#000000" transform="matrix(0.05 0 0 0.05 -162 -249)" d="M 7496.97,5541.51 L 7496.97,5555.36 L 7253.57,5695.9 L 7241.57,5688.97 L 7496.97,5541.51 Z " />
<path stroke="none" fill="#000000" transform="matrix(0.05 0 0 0.05 -162 -249)" d="M 7752.37,5695.9 L 7746.37,5692.43 L 7746.37,5685.51 L 7991.38,5544.04 L 7995.77,5548.43 L 7997.38,5554.43 L 7752.37,5695.9 Z " />
<path stroke="none" fill="#000000" transform="matrix(0.05 0 0 0.05 -162 -249)" d="M 7997.38,5554.43 L 7995.77,5548.43 L 8006.17,5542.43 L 8273.38,5542.43 L 8294.17,5554.43 L 7997.38,5554.43 Z " />
<path stroke="none" fill="#000000" transform="matrix(0.05 0 0 0.05 -162 -249)" d="M 8294.17,5554.43 L 8273.38,5542.43 L 8139.77,5311.03 L 8139.77,5299.03 L 8147.27,5300.02 L 8294.17,5554.43 Z " />
<path stroke="none" fill="#000000" transform="matrix(0.05 0 0 0.05 -162 -249)" d="M 8132.27,5300.02 L 8139.77,5299.03 L 8139.77,5311.03 L 8006.17,5542.43 L 7995.77,5548.43 L 7991.38,5544.04 L 8132.27,5300.02 Z " />
<text x="0" y="0" stroke="none" fill="#000000" transform="matrix(0.05 0 0 0.05 226.476 9.35324)" font-style="normal" font-weight="normal" font-size="200px" font-family="Arial" >
Cl</text>
<path stroke="none" fill="#000000" transform="matrix(0.05 0 0 0.05 -162 -249)" d="M 8139.77,5290.55 L 8139.77,5299.03 L 8132.27,5300.02 L 7988.17,5155.92 L 7996.66,5147.43 L 8139.77,5290.55 Z " />
<text x="0" y="0" stroke="none" fill="#000000" transform="matrix(0.05 0 0 0.05 251.568 9.35324)" font-style="normal" font-weight="normal" font-size="200px" font-family="Arial" >
Cl</text>
<path stroke="none" fill="#000000" transform="matrix(0.05 0 0 0.05 -162 -249)" d="M 8147.27,5300.02 L 8139.77,5299.03 L 8139.77,5290.55 L 8266.09,5164.36 L 8274.57,5172.85 L 8147.27,5300.02 Z " />
<path stroke="none" fill="#000000" transform="matrix(0.05 0 0 0.05 -162 -249)" d="M 6499.9,5879.56 L 5719.72,5879.56 L 5719.72,5867.56 L 6499.9,5867.56 Z " />
<path stroke="none" fill="#000000" transform="matrix(0.05 0 0 0.05 -162 -249)" d="M 6735.14,5873.56 C 6735.14,5873.56 6465.15,5942.06 6465.15,5942.06 C 6465.15,5942.06 6498.9,5903.53 6498.9,5873.56 C 6498.9,5843.15 6465.15,5804.06 6465.15,5804.06 C 6465.15,5804.06 6735.14,5873.56 6735.14,5873.56 C 6735.14,5873.56 6735.14,5873.56 6735.14,5873.56 " />
<path stroke="#000000" stroke-width="1" fill="none" transform="matrix(0.05 0 0 0.05 -162 -249)" d="M 6735.14,5873.56 C 6735.14,5873.56 6465.15,5942.06 6465.15,5942.06 C 6465.15,5942.06 6498.9,5903.53 6498.9,5873.56 C 6498.9,5843.15 6465.15,5804.06 6465.15,5804.06 C 6465.15,5804.06 6735.14,5873.56 6735.14,5873.56 C 6735.14,5873.56 6735.14,5873.56 6735.14,5873.56 " />
<path stroke="none" fill="#000000" transform="matrix(0.05 0 0 0.05 -162 -249)" d="M 4103.83,5858.79 L 4213.66,5858.79 L 4213.66,5868.79 L 4103.83,5868.79 Z " />
<path stroke="none" fill="#000000" transform="matrix(0.05 0 0 0.05 -162 -249)" d="M 4163.74,5808.87 L 4163.74,5918.71 L 4153.74,5918.71 L 4153.74,5808.87 Z " />
<path stroke="none" fill="#000000" transform="matrix(0.05 0 0 0.05 -162 -249)" d="M 4103.83,5858.79 L 4213.66,5858.79 L 4213.66,5868.79 L 4103.83,5868.79 Z " />
<path stroke="none" fill="#000000" transform="matrix(0.05 0 0 0.05 -162 -249)" d="M 4163.74,5808.87 L 4163.74,5918.71 L 4153.74,5918.71 L 4153.74,5808.87 Z " />
<text x="0" y="0" stroke="none" fill="#000000" transform="matrix(0.05 0 0 0.05 60.9105 49.1815)" font-style="normal" font-weight="normal" font-size="200px" font-family="Arial" >
Cl</text>
<path stroke="none" fill="#000000" transform="matrix(0.05 0 0 0.05 -162 -249)" d="M 4681.58,5866.18 L 4675.58,5855.79 L 4874.28,5741.07 L 4874.28,5754.93 L 4681.58,5866.18 Z " />
<text x="0" y="0" stroke="none" fill="#000000" transform="matrix(0.05 0 0 0.05 90.5737 49.1815)" font-style="normal" font-weight="normal" font-size="200px" font-family="Arial" >
Cl</text>
<path stroke="none" fill="#000000" transform="matrix(0.05 0 0 0.05 -162 -249)" d="M 4874.28,5754.93 L 4874.28,5741.07 L 5040.67,5837.14 L 5034.67,5847.53 L 4874.28,5754.93 Z " />
<path stroke="none" fill="#000000" transform="matrix(0.05 0 0 0.05 -162 -249)" d="M 4895.11,5669.22 A 16.6667,16.6667 0 1 1 4928.44,5669.22 A 16.6667,16.6667 0 1 1 4895.11,5669.22 Z " />
<path stroke="none" fill="#000000" transform="matrix(0.05 0 0 0.05 -162 -249)" d="M 4820.11,5669.22 A 16.6667,16.6667 0 1 1 4853.44,5669.22 A 16.6667,16.6667 0 1 1 4820.11,5669.22 Z " />
</svg>
