<?xml version="1.0" standalone="no" ?>
<!DOCTYPE svg PUBLIC "-//W3C//DTD SVG 1.1//EN" "http://www.w3.org/Graphics/SVG/1.1/DTD/svg11.dtd">
<svg width="410px" height="121px" viewBox="0 0 410 121" style="background-color: #ffffff00" xmlns="http://www.w3.org/2000/svg" xmlns:xlink="http://www.w3.org/1999/xlink" version="1.1" >
<text x="0" y="0" stroke="none" fill="#000000" transform="matrix(0.05 0 0 0.05 1.84915 19.8115)" font-style="normal" font-weight="normal" font-size="200px" font-family="Arial" >
Cl</text>
<text x="0" y="0" stroke="none" fill="#000000" transform="matrix(0.05 0 0 0.05 11.2925 21.9307)" font-style="normal" font-weight="normal" font-size="150px" font-family="Arial" >
3</text>
<text x="0" y="0" stroke="none" fill="#000000" transform="matrix(0.05 0 0 0.05 15.4637 19.8115)" font-style="normal" font-weight="normal" font-size="200px" font-family="Arial" >
C</text>
<text x="0" y="0" stroke="none" fill="#000000" transform="matrix(0.05 0 0 0.05 29.9091 19.7515)" font-style="normal" font-weight="normal" font-size="200px" font-family="Arial" >
H</text>
<path stroke="none" fill="#000000" transform="matrix(0.05 0 0 0.05 -39 -23)" d="M 1257.74,789.419 L 1257.74,777.419 L 1361.4,777.409 L 1361.4,789.409 L 1257.74,789.419 Z " />
<text x="0" y="0" stroke="none" fill="#000000" transform="matrix(0.05 0 0 0.05 48.19 19.81)" font-style="normal" font-weight="normal" font-size="160px" font-family="Arial" >
+</text>
<text x="0" y="0" stroke="none" fill="#000000" transform="matrix(0.05 0 0 0.05 65.0808 19.4215)" font-style="normal" font-weight="normal" font-size="200px" font-family="Arial" >
OH</text>
<path stroke="#000000" stroke-width="10" fill="none" transform="matrix(0.05 0 0 0.05 -39 -23)" d="M 2371.53,642.133 A 71.7999,71.7999 0 1 1 2515.13,642.133 A 71.7999,71.7999 0 1 1 2371.53,642.133 Z " />
<path stroke="none" fill="#000000" transform="matrix(0.05 0 0 0.05 -39 -23)" d="M 2403.67,636.8 L 2482.33,636.8 L 2482.33,646.8 L 2403.67,646.8 Z " />
<path stroke="none" fill="#000000" transform="matrix(0.05 0 0 0.05 -39 -23)" d="M 3642.8,783.6 L 2820,783.6 L 2820,771.6 L 3642.8,771.6 Z " />
<path stroke="none" fill="#000000" transform="matrix(0.05 0 0 0.05 -39 -23)" d="M 3746.8,777.6 C 3746.8,777.6 3626.8,808.599 3626.8,808.599 C 3626.8,808.599 3641.8,791.162 3641.8,777.6 C 3641.8,763.6 3626.8,745.6 3626.8,745.6 C 3626.8,745.6 3746.8,777.6 3746.8,777.6 C 3746.8,777.6 3746.8,777.6 3746.8,777.6 " />
<path stroke="#000000" stroke-width="1" fill="none" transform="matrix(0.05 0 0 0.05 -39 -23)" d="M 3746.8,777.6 C 3746.8,777.6 3626.8,808.599 3626.8,808.599 C 3626.8,808.599 3641.8,791.162 3641.8,777.6 C 3641.8,763.6 3626.8,745.6 3626.8,745.6 C 3626.8,745.6 3746.8,777.6 3746.8,777.6 C 3746.8,777.6 3746.8,777.6 3746.8,777.6 " />
<text x="0" y="0" stroke="none" fill="#000000" transform="matrix(0.05 0 0 0.05 162.479 17.8415)" font-style="normal" font-weight="normal" font-size="200px" font-family="Arial" >
Cl</text>
<text x="0" y="0" stroke="none" fill="#000000" transform="matrix(0.05 0 0 0.05 171.923 19.9607)" font-style="normal" font-weight="normal" font-size="150px" font-family="Arial" >
3</text>
<text x="0" y="0" stroke="none" fill="#000000" transform="matrix(0.05 0 0 0.05 176.094 17.8415)" font-style="normal" font-weight="normal" font-size="200px" font-family="Arial" >
C</text>
<path stroke="#000000" stroke-width="10" fill="none" transform="matrix(0.05 0 0 0.05 -39 -23)" d="M 4416.73,593.133 A 71.7999,71.7999 0 1 1 4560.33,593.133 A 71.7999,71.7999 0 1 1 4416.73,593.133 Z " />
<path stroke="none" fill="#000000" transform="matrix(0.05 0 0 0.05 -39 -23)" d="M 4448.87,587.8 L 4527.53,587.8 L 4527.53,597.8 L 4448.87,597.8 Z " />
<path stroke="none" fill="#000000" transform="matrix(0.05 0 0 0.05 -39 -23)" d="M 4481.17,862.2 A 16.6317,16.6317 0 1 1 4514.43,862.2 A 16.6317,16.6317 0 1 1 4481.17,862.2 Z " />
<path stroke="none" fill="#000000" transform="matrix(0.05 0 0 0.05 -39 -23)" d="M 4519.97,798.2 A 16.6317,16.6317 0 1 1 4553.23,798.2 A 16.6317,16.6317 0 1 1 4519.97,798.2 Z " />
<path stroke="#ff0000" stroke-width="12" fill="none" transform="matrix(0.05 0 0 0.05 -39 -23)" d="M 4222.09,916.247 C 4248.32,993.279 4332.23,1034.54 4409.36,1008.34 C 4444.77,996.319 4475.15,970.366 4492.53,937.3 " />
<path stroke="none" fill="#ff0000" transform="matrix(0.05 0 0 0.05 -39 -23)" d="M 4214.3,873.37 C 4214.3,873.37 4244.53,911.352 4244.53,911.352 C 4244.53,911.352 4232.28,914.025 4222.09,916.247 C 4211.9,918.469 4199.65,921.141 4199.65,921.141 C 4199.65,921.141 4214.3,873.37 4214.3,873.37 C 4214.3,873.37 4214.3,873.37 4214.3,873.37 " />
<path stroke="#ff0000" stroke-width="1" fill="none" transform="matrix(0.05 0 0 0.05 -39 -23)" d="M 4214.3,873.37 C 4214.3,873.37 4244.53,911.352 4244.53,911.352 C 4244.53,911.352 4232.28,914.025 4222.09,916.247 C 4211.9,918.469 4199.65,921.141 4199.65,921.141 C 4199.65,921.141 4214.3,873.37 4214.3,873.37 C 4214.3,873.37 4214.3,873.37 4214.3,873.37 " />
<path stroke="#ff0000" stroke-width="12" fill="none" transform="matrix(0.05 0 0 0.05 -39 -23)" d="M 3867.97,1099.25 C 3974.85,1093.63 4072.67,1014.44 4100.35,911.136 " />
<path stroke="none" fill="#ff0000" transform="matrix(0.05 0 0 0.05 -39 -23)" d="M 3788.81,1090.95 C 3788.81,1090.95 3882.65,1076.82 3882.65,1076.82 C 3882.65,1076.82 3869.37,1089.46 3867.97,1099.25 C 3866.57,1109.04 3875.91,1124.05 3875.91,1124.05 C 3875.91,1124.05 3788.81,1090.95 3788.81,1090.95 C 3788.81,1090.95 3788.81,1090.95 3788.81,1090.95 " />
<path stroke="#ff0000" stroke-width="1" fill="none" transform="matrix(0.05 0 0 0.05 -39 -23)" d="M 3788.81,1090.95 C 3788.81,1090.95 3882.65,1076.82 3882.65,1076.82 C 3882.65,1076.82 3869.37,1089.46 3867.97,1099.25 C 3866.57,1109.04 3875.91,1124.05 3875.91,1124.05 C 3875.91,1124.05 3788.81,1090.95 3788.81,1090.95 C 3788.81,1090.95 3788.81,1090.95 3788.81,1090.95 " />
<text x="0" y="0" stroke="none" fill="#000000" transform="matrix(0.05 0 0 0.05 215.889 17.4515)" font-style="normal" font-weight="normal" font-size="200px" font-family="Arial" >
H</text>
<text x="0" y="0" stroke="none" fill="#000000" transform="matrix(0.05 0 0 0.05 223.111 19.5707)" font-style="normal" font-weight="normal" font-size="150px" font-family="Arial" >
2</text>
<text x="0" y="0" stroke="none" fill="#000000" transform="matrix(0.05 0 0 0.05 227.282 17.4515)" font-style="normal" font-weight="normal" font-size="200px" font-family="Arial" >
O</text>
<text x="0" y="0" stroke="none" fill="#000000" transform="matrix(0.05 0 0 0.05 199.79 16.67)" font-style="normal" font-weight="normal" font-size="160px" font-family="Arial" >
+</text>
<path stroke="none" fill="#000000" transform="matrix(0.05 0 0 0.05 -39 -23)" d="M 1140.8,2125.14 L 1146.8,2128.6 L 1146.8,2135.53 L 903.4,2276.06 L 891.4,2269.14 L 1140.8,2125.14 Z " />
<path stroke="none" fill="#000000" transform="matrix(0.05 0 0 0.05 -39 -23)" d="M 1143.8,2183.26 L 1149.8,2193.65 L 952.238,2307.72 L 946.237,2297.33 L 1143.8,2183.26 Z " />
<path stroke="none" fill="#000000" transform="matrix(0.05 0 0 0.05 -39 -23)" d="M 891.4,2269.14 L 903.4,2276.06 L 903.4,2557.14 L 891.4,2564.06 L 891.4,2269.14 Z " />
<path stroke="none" fill="#000000" transform="matrix(0.05 0 0 0.05 -39 -23)" d="M 891.4,2564.06 L 903.4,2557.14 L 1146.8,2697.67 L 1146.8,2711.53 L 891.4,2564.06 Z " />
<path stroke="none" fill="#000000" transform="matrix(0.05 0 0 0.05 -39 -23)" d="M 946.237,2535.87 L 952.238,2525.48 L 1149.8,2639.55 L 1143.8,2649.94 L 946.237,2535.87 Z " />
<path stroke="none" fill="#000000" transform="matrix(0.05 0 0 0.05 -39 -23)" d="M 1146.8,2711.53 L 1146.8,2697.67 L 1390.2,2557.14 L 1402.2,2564.06 L 1146.8,2711.53 Z " />
<path stroke="none" fill="#000000" transform="matrix(0.05 0 0 0.05 -39 -23)" d="M 1402.2,2564.06 L 1390.2,2557.14 L 1390.2,2276.06 L 1402.2,2269.14 L 1402.2,2564.06 Z " />
<path stroke="none" fill="#000000" transform="matrix(0.05 0 0 0.05 -39 -23)" d="M 1350.36,2530.67 L 1338.36,2530.67 L 1338.36,2302.53 L 1350.36,2302.53 L 1350.36,2530.67 Z " />
<path stroke="none" fill="#000000" transform="matrix(0.05 0 0 0.05 -39 -23)" d="M 1402.2,2269.14 L 1390.2,2276.06 L 1146.8,2135.53 L 1146.8,2128.6 L 1152.8,2125.14 L 1402.2,2269.14 Z " />
<path stroke="none" fill="#000000" transform="matrix(0.05 0 0 0.05 -39 -23)" d="M 1152.8,2125.14 L 1146.8,2128.6 L 1140.8,2125.14 L 1140.8,1837.14 L 1152.8,1844.06 L 1152.8,2125.14 Z " />
<path stroke="none" fill="#000000" transform="matrix(0.05 0 0 0.05 -39 -23)" d="M 1152.8,1844.06 L 1140.8,1837.14 L 1393.2,1691.4 L 1399.2,1701.8 L 1152.8,1844.06 Z " />
<path stroke="none" fill="#000000" transform="matrix(0.05 0 0 0.05 -39 -23)" d="M 1201.64,1875.72 L 1195.64,1865.33 L 1419.12,1736.3 L 1425.12,1746.69 L 1201.64,1875.72 Z " />
<path stroke="none" fill="#000000" transform="matrix(0.05 0 0 0.05 -39 -23)" d="M 3438.6,2197.6 L 2105.2,2197.6 L 2105.2,2185.6 L 3438.6,2185.6 Z " />
<path stroke="none" fill="#000000" transform="matrix(0.05 0 0 0.05 -39 -23)" d="M 3542.6,2191.6 C 3542.6,2191.6 3422.6,2222.6 3422.6,2222.6 C 3422.6,2222.6 3437.6,2205.16 3437.6,2191.6 C 3437.6,2177.6 3422.6,2159.6 3422.6,2159.6 C 3422.6,2159.6 3542.6,2191.6 3542.6,2191.6 C 3542.6,2191.6 3542.6,2191.6 3542.6,2191.6 " />
<path stroke="#000000" stroke-width="1" fill="none" transform="matrix(0.05 0 0 0.05 -39 -23)" d="M 3542.6,2191.6 C 3542.6,2191.6 3422.6,2222.6 3422.6,2222.6 C 3422.6,2222.6 3437.6,2205.16 3437.6,2191.6 C 3437.6,2177.6 3422.6,2159.6 3422.6,2159.6 C 3422.6,2159.6 3542.6,2191.6 3542.6,2191.6 C 3542.6,2191.6 3542.6,2191.6 3542.6,2191.6 " />
<text x="0" y="0" stroke="none" fill="#000000" transform="matrix(0.05 0 0 0.05 82.3591 75.9715)" font-style="normal" font-weight="normal" font-size="200px" font-family="Arial" >
CCl</text>
<text x="0" y="0" stroke="none" fill="#000000" transform="matrix(0.05 0 0 0.05 99.0242 78.0907)" font-style="normal" font-weight="normal" font-size="150px" font-family="Arial" >
2</text>
<path stroke="none" fill="#000000" transform="matrix(0.05 0 0 0.05 -39 -23)" d="M 2325.73,1870.2 A 16.6672,16.6672 0 1 1 2359.07,1870.2 A 16.6672,16.6672 0 1 1 2325.73,1870.2 Z " />
<path stroke="none" fill="#000000" transform="matrix(0.05 0 0 0.05 -39 -23)" d="M 2326.33,1945.2 A 16.6672,16.6672 0 1 1 2359.67,1945.2 A 16.6672,16.6672 0 1 1 2326.33,1945.2 Z " />
<path stroke="#ff0000" stroke-width="12" fill="none" transform="matrix(0.05 0 0 0.05 -39 -23)" d="M 1328.68,1965.35 C 1596.93,2175.04 2013.6,2149.61 2254.36,1908.85 " />
<path stroke="none" fill="#ff0000" transform="matrix(0.05 0 0 0.05 -39 -23)" d="M 1264.7,1908.7 C 1264.7,1908.7 1355.01,1954.16 1355.01,1954.16 C 1355.01,1954.16 1336.33,1956.76 1328.68,1965.35 C 1321.03,1973.93 1320.64,1992.72 1320.64,1992.72 C 1320.64,1992.72 1264.7,1908.7 1264.7,1908.7 C 1264.7,1908.7 1264.7,1908.7 1264.7,1908.7 " />
<path stroke="#ff0000" stroke-width="1" fill="none" transform="matrix(0.05 0 0 0.05 -39 -23)" d="M 1264.7,1908.7 C 1264.7,1908.7 1355.01,1954.16 1355.01,1954.16 C 1355.01,1954.16 1336.33,1956.76 1328.68,1965.35 C 1321.03,1973.93 1320.64,1992.72 1320.64,1992.72 C 1320.64,1992.72 1264.7,1908.7 1264.7,1908.7 C 1264.7,1908.7 1264.7,1908.7 1264.7,1908.7 " />
<path stroke="none" fill="#000000" transform="matrix(0.05 0 0 0.05 -39 -23)" d="M 3954.8,2279.74 L 3966.8,2286.66 L 3966.8,2567.74 L 3954.8,2574.66 L 3954.8,2279.74 Z " />
<path stroke="none" fill="#000000" transform="matrix(0.05 0 0 0.05 -39 -23)" d="M 4006.64,2313.13 L 4018.64,2313.13 L 4018.64,2541.27 L 4006.64,2541.27 L 4006.64,2313.13 Z " />
<path stroke="none" fill="#000000" transform="matrix(0.05 0 0 0.05 -39 -23)" d="M 3954.8,2574.66 L 3966.8,2567.74 L 4210.2,2708.27 L 4210.2,2722.13 L 3954.8,2574.66 Z " />
<path stroke="none" fill="#000000" transform="matrix(0.05 0 0 0.05 -39 -23)" d="M 4210.2,2722.13 L 4210.2,2708.27 L 4453.6,2567.74 L 4465.6,2574.66 L 4210.2,2722.13 Z " />
<path stroke="none" fill="#000000" transform="matrix(0.05 0 0 0.05 -39 -23)" d="M 4213.2,2660.54 L 4207.2,2650.15 L 4404.76,2536.08 L 4410.76,2546.47 L 4213.2,2660.54 Z " />
<path stroke="none" fill="#000000" transform="matrix(0.05 0 0 0.05 -39 -23)" d="M 4465.6,2574.66 L 4453.6,2567.74 L 4453.6,2286.66 L 4459.6,2283.2 L 4465.6,2286.66 L 4465.6,2574.66 Z " />
<path stroke="none" fill="#000000" transform="matrix(0.05 0 0 0.05 -39 -23)" d="M 4459.6,2276.27 L 4459.6,2283.2 L 4453.6,2286.66 L 4210.2,2146.13 L 4210.2,2132.27 L 4459.6,2276.27 Z " />
<path stroke="none" fill="#000000" transform="matrix(0.05 0 0 0.05 -39 -23)" d="M 4410.76,2307.93 L 4404.76,2318.32 L 4207.2,2204.25 L 4213.2,2193.86 L 4410.76,2307.93 Z " />
<path stroke="none" fill="#000000" transform="matrix(0.05 0 0 0.05 -39 -23)" d="M 4210.2,2132.27 L 4210.2,2146.13 L 3966.8,2286.66 L 3954.8,2279.74 L 4210.2,2132.27 Z " />
<path stroke="none" fill="#000000" transform="matrix(0.05 0 0 0.05 -39 -23)" d="M 4465.6,2286.66 L 4459.6,2283.2 L 4459.6,2276.27 L 4703,2135.74 L 4709,2139.2 L 4712,2144.4 L 4465.6,2286.66 Z " />
<path stroke="none" fill="#000000" transform="matrix(0.05 0 0 0.05 -39 -23)" d="M 4715,2128.81 L 4709,2139.2 L 4703,2135.74 L 4703,1840.81 L 4715,1861.59 L 4715,2128.81 Z " />
<path stroke="none" fill="#000000" transform="matrix(0.05 0 0 0.05 -39 -23)" d="M 4766.84,2049.41 L 4754.84,2049.41 L 4754.84,1940.99 L 4766.84,1940.99 L 4766.84,2049.41 Z " />
<text x="0" y="0" stroke="none" fill="#000000" transform="matrix(0.05 0 0 0.05 205.309 80.3415)" font-style="normal" font-weight="normal" font-size="200px" font-family="Arial" >
C</text>
<path stroke="none" fill="#000000" transform="matrix(0.05 0 0 0.05 -39 -23)" d="M 4715,1861.59 L 4703,1840.81 L 4766.46,1877.45 L 4760.46,1887.84 L 4715,1861.59 Z " />
<path stroke="none" fill="#000000" transform="matrix(0.05 0 0 0.05 -39 -23)" d="M 4814.92,1919.29 L 4820.92,1908.89 L 4875.39,1940.34 L 4869.39,1950.73 L 4814.92,1919.29 Z " />
<path stroke="none" fill="#000000" transform="matrix(0.05 0 0 0.05 -39 -23)" d="M 4712,2144.4 L 4709,2139.2 L 4715,2128.81 L 4760.22,2102.7 L 4766.22,2113.09 L 4712,2144.4 Z " />
<path stroke="none" fill="#000000" transform="matrix(0.05 0 0 0.05 -39 -23)" d="M 4820.44,2081.78 L 4814.44,2071.39 L 4868.67,2040.08 L 4874.67,2050.48 L 4820.44,2081.78 Z " />
<text x="0" y="0" stroke="none" fill="#000000" transform="matrix(0.05 0 0 0.05 217.779 73.1415)" font-style="normal" font-weight="normal" font-size="200px" font-family="Arial" >
Cl</text>
<path stroke="none" fill="#000000" transform="matrix(0.05 0 0 0.05 -39 -23)" d="M 5051.01,1948.65 L 5045.01,1938.26 L 5118.07,1896.08 L 5124.07,1906.48 L 5051.01,1948.65 Z " />
<text x="0" y="0" stroke="none" fill="#000000" transform="matrix(0.05 0 0 0.05 217.779 87.5415)" font-style="normal" font-weight="normal" font-size="200px" font-family="Arial" >
Cl</text>
<path stroke="none" fill="#000000" transform="matrix(0.05 0 0 0.05 -39 -23)" d="M 5045.73,2052.55 L 5051.73,2042.16 L 5124.79,2084.34 L 5118.79,2094.73 L 5045.73,2052.55 Z " />
<path stroke="#000000" stroke-width="12" fill="none" transform="matrix(0.05 0 0 0.05 -39 -23)" d="M 5664.82,1657.4 L 5749.8,1657.4 " />
<path stroke="#000000" stroke-width="12" fill="none" transform="matrix(0.05 0 0 0.05 -39 -23)" d="M 5749.8,1657.4 L 5749.8,2827.8 " />
<path stroke="#000000" stroke-width="12" fill="none" transform="matrix(0.05 0 0 0.05 -39 -23)" d="M 5749.8,2827.8 L 5664.82,2827.8 " />
<path stroke="#000000" stroke-width="12" fill="none" transform="matrix(0.05 0 0 0.05 -39 -23)" d="M 3753.18,2827.8 L 3668.2,2827.8 " />
<path stroke="#000000" stroke-width="12" fill="none" transform="matrix(0.05 0 0 0.05 -39 -23)" d="M 3668.2,2827.8 L 3668.2,1657.4 " />
<path stroke="#000000" stroke-width="12" fill="none" transform="matrix(0.05 0 0 0.05 -39 -23)" d="M 3668.2,1657.4 L 3753.18,1657.4 " />
<path stroke="none" fill="#000000" transform="matrix(0.05 0 0 0.05 -39 -23)" d="M 7303.2,2181.8 L 6024.8,2181.8 L 6024.8,2169.8 L 7303.2,2169.8 Z " />
<path stroke="none" fill="#000000" transform="matrix(0.05 0 0 0.05 -39 -23)" d="M 7407.2,2175.8 C 7407.2,2175.8 7287.2,2206.8 7287.2,2206.8 C 7287.2,2206.8 7302.2,2189.36 7302.2,2175.8 C 7302.2,2161.8 7287.2,2143.8 7287.2,2143.8 C 7287.2,2143.8 7407.2,2175.8 7407.2,2175.8 C 7407.2,2175.8 7407.2,2175.8 7407.2,2175.8 " />
<path stroke="#000000" stroke-width="1" fill="none" transform="matrix(0.05 0 0 0.05 -39 -23)" d="M 7407.2,2175.8 C 7407.2,2175.8 7287.2,2206.8 7287.2,2206.8 C 7287.2,2206.8 7302.2,2189.36 7302.2,2175.8 C 7302.2,2161.8 7287.2,2143.8 7287.2,2143.8 C 7287.2,2143.8 7407.2,2175.8 7407.2,2175.8 C 7407.2,2175.8 7407.2,2175.8 7407.2,2175.8 " />
<path stroke="none" fill="#000000" transform="matrix(0.05 0 0 0.05 -39 -23)" d="M 7623,2240.34 L 7635,2247.26 L 7635,2528.34 L 7623,2535.26 L 7623,2240.34 Z " />
<path stroke="none" fill="#000000" transform="matrix(0.05 0 0 0.05 -39 -23)" d="M 7674.84,2273.73 L 7686.84,2273.73 L 7686.84,2501.87 L 7674.84,2501.87 L 7674.84,2273.73 Z " />
<path stroke="none" fill="#000000" transform="matrix(0.05 0 0 0.05 -39 -23)" d="M 7623,2535.26 L 7635,2528.34 L 7878.4,2668.87 L 7878.4,2682.73 L 7623,2535.26 Z " />
<path stroke="none" fill="#000000" transform="matrix(0.05 0 0 0.05 -39 -23)" d="M 7878.4,2682.73 L 7878.4,2668.87 L 8121.8,2528.34 L 8133.8,2535.26 L 7878.4,2682.73 Z " />
<path stroke="none" fill="#000000" transform="matrix(0.05 0 0 0.05 -39 -23)" d="M 7881.4,2621.14 L 7875.4,2610.75 L 8072.96,2496.68 L 8078.96,2507.07 L 7881.4,2621.14 Z " />
<path stroke="none" fill="#000000" transform="matrix(0.05 0 0 0.05 -39 -23)" d="M 8133.8,2535.26 L 8121.8,2528.34 L 8121.8,2247.26 L 8127.8,2243.8 L 8133.8,2247.27 L 8133.8,2535.26 Z " />
<path stroke="none" fill="#000000" transform="matrix(0.05 0 0 0.05 -39 -23)" d="M 8127.8,2236.87 L 8127.8,2243.8 L 8121.8,2247.26 L 7878.4,2106.73 L 7878.4,2092.87 L 8127.8,2236.87 Z " />
<path stroke="none" fill="#000000" transform="matrix(0.05 0 0 0.05 -39 -23)" d="M 8078.96,2268.53 L 8072.96,2278.92 L 7875.4,2164.85 L 7881.4,2154.46 L 8078.96,2268.53 Z " />
<path stroke="none" fill="#000000" transform="matrix(0.05 0 0 0.05 -39 -23)" d="M 7878.4,2092.87 L 7878.4,2106.73 L 7635,2247.26 L 7623,2240.34 L 7878.4,2092.87 Z " />
<path stroke="none" fill="#000000" transform="matrix(0.05 0 0 0.05 -39 -23)" d="M 8133.8,2247.27 L 8127.8,2243.8 L 8127.8,2236.87 L 8371.4,2096.33 L 8377.4,2099.8 L 8380.4,2105 L 8133.8,2247.27 Z " />
<path stroke="none" fill="#000000" transform="matrix(0.05 0 0 0.05 -39 -23)" d="M 8383.4,2089.41 L 8377.4,2099.8 L 8371.4,2096.33 L 8371.4,1801.41 L 8383.4,1822.19 L 8383.4,2089.41 Z " />
<path stroke="none" fill="#000000" transform="matrix(0.05 0 0 0.05 -39 -23)" d="M 8383.4,1822.19 L 8371.4,1801.41 L 8625.81,1948.3 L 8626.8,1955.8 L 8614.8,1955.8 L 8383.4,1822.19 Z " />
<path stroke="none" fill="#000000" transform="matrix(0.05 0 0 0.05 -39 -23)" d="M 8380.4,2105 L 8377.4,2099.8 L 8383.4,2089.41 L 8614.8,1955.8 L 8626.8,1955.8 L 8625.81,1963.3 L 8380.4,2105 Z " />
<text x="0" y="0" stroke="none" fill="#000000" transform="matrix(0.05 0 0 0.05 398.909 68.1915)" font-style="normal" font-weight="normal" font-size="200px" font-family="Arial" >
Cl</text>
<path stroke="none" fill="#000000" transform="matrix(0.05 0 0 0.05 -39 -23)" d="M 8635.28,1955.8 L 8626.8,1955.8 L 8625.81,1948.3 L 8752.94,1821.17 L 8761.43,1829.65 L 8635.28,1955.8 Z " />
<text x="0" y="0" stroke="none" fill="#000000" transform="matrix(0.05 0 0 0.05 398.909 88.5615)" font-style="normal" font-weight="normal" font-size="200px" font-family="Arial" >
Cl</text>
<path stroke="none" fill="#000000" transform="matrix(0.05 0 0 0.05 -39 -23)" d="M 8625.81,1963.3 L 8626.8,1955.8 L 8635.28,1955.8 L 8762.66,2083.31 L 8754.17,2091.79 L 8625.81,1963.3 Z " />
</svg>
